REM MD5 e384b7990a53cacd432d7cefbc9c654a
FILE "DemoDemo PlayStation Vol. 17 (Japan).bin" BINARY
  TRACK 01 MODE2/2352
    INDEX 01 00:00:00
  TRACK 02 AUDIO
    INDEX 00 30:59:19
    INDEX 01 31:01:19
  TRACK 03 AUDIO
    INDEX 00 31:43:29
    INDEX 01 31:45:29
  TRACK 04 AUDIO
    INDEX 00 32:29:29
    INDEX 01 32:31:29
REM LEADOUT 35:41:46
